<svg width="459" height="134" xmlns="http://www.w3.org/2000/svg" xmlns:xlink="http://www.w3.org/1999/xlink"><defs><path d="M261.962 36.08a49.75 49.75 0 0 1 42.8 1.593 51.082 51.082 0 0 1 17.762 15.49L328 61.456l-7.03 6.45c-.691.623-2.023 1.818-5.428 4.98-3.034 2.765-5.673 5.13-7.968 6.999-2.294 1.867-5.106 3.96-8.313 6.25a49.52 49.52 0 0 1-11.298 5.977 35.102 35.102 0 0 1-12.039 2.192h-20.943c4.302 9.982 13.761 16.707 24.52 17.432V134a49.186 49.186 0 0 1-23.336-6.724c-22.07-12.9-31.125-40.407-21.092-64.077 5.109-12.24 14.76-21.974 26.889-27.12zm36.683 76.597c4.86-4.877 12.75-4.906 17.645-.065a12.5 12.5 0 0 1 0 17.775c-4.896 4.842-12.785 4.813-17.645-.064-4.86-4.878-4.86-12.768 0-17.646zM223 32v25.593h-2.856c-14.677-.014-26.59 11.909-26.618 26.639V133H168V84.232C168.055 55.369 191.385 32 220.144 32H223zM91.48 0v38.075a42.724 42.724 0 0 1 5.27-2.476 41.057 41.057 0 0 1 14.58-2.475 44.567 44.567 0 0 1 17.238 3.218 36.743 36.743 0 0 1 13.496 9.482 41.341 41.341 0 0 1 8.25 14.11 52.236 52.236 0 0 1 2.684 16.934V132h-24.43V77.734a22.707 22.707 0 0 0-4.851-15.274c-2.759-3.367-7.02-4.951-13.028-4.951-2.54-.02-5.057.495-7.388 1.51a19.431 19.431 0 0 0-6.083 4.307 22.05 22.05 0 0 0-5.788 15.35V132H67V3.936L91.48 0zM363 0v132h-25V3.986L363 0zm53.628 35.006c4.98-.062 9.955.368 14.85 1.284a68.25 68.25 0 0 1 11.114 3.088 40.774 40.774 0 0 1 8.193 4.125c2.277 1.606 4.158 2.89 5.742 4.076l.644.47-10.223 17.463-.693-.444c-1.683-1.063-3.638-2.174-5.816-3.31a75.544 75.544 0 0 0-6.93-3.113 53.891 53.891 0 0 0-7.575-2.322 36.506 36.506 0 0 0-7.747-.864c-3.861-.141-7.71.506-11.312 1.902a5.658 5.658 0 0 0-3.935 5.335c0 1.828 1.237 3.285 3.713 4.446a61.962 61.962 0 0 0 10.197 3.656l13.465 3.68a69.738 69.738 0 0 1 13.638 5.213 33.23 33.23 0 0 1 10.594 8.423 20.647 20.647 0 0 1 4.43 13.61 27.468 27.468 0 0 1-9.9 22.232c-6.435 5.31-16.064 8.028-28.588 8.028a64.818 64.818 0 0 1-25.643-4.669 59.1 59.1 0 0 1-17.326-10.893l-.52-.47 11.064-18.476.718.642a53.333 53.333 0 0 0 14.01 8.67 67.692 67.692 0 0 0 9.702 3.286 39.679 39.679 0 0 0 10.123 1.334c3.12.085 6.216-.567 9.035-1.903a6.075 6.075 0 0 0 3.465-5.903 5.683 5.683 0 0 0-3.713-4.94 60.098 60.098 0 0 0-10.272-3.903c-4.158-1.235-8.687-2.47-13.465-3.706a59.477 59.477 0 0 1-13.663-5.286 35.553 35.553 0 0 1-10.569-8.67 21.387 21.387 0 0 1-4.38-13.833 24.809 24.809 0 0 1 2.92-12.153 27.561 27.561 0 0 1 7.92-8.843 36.99 36.99 0 0 1 11.882-5.434 57.436 57.436 0 0 1 14.85-1.828zM24.708 11v23.583h28.267v24.13H24.707v36.032c.014 6.472 5.28 11.716 11.78 11.73H53V131H33.773l-.572-.044C14.378 129.361-.11 113.618.001 94.745V14.893L24.707 11zm268.707 45.899c-10.456-4.89-22.801-2.923-31.256 4.98a28.807 28.807 0 0 0-7.203 10.111h21.314a11.083 11.083 0 0 0 3.552-.722 35.856 35.856 0 0 0 4.736-2.017 35.564 35.564 0 0 0 4.934-3.437c2.467-1.843 4.07-3.163 4.934-3.935.592-.548 1.628-1.469 2.985-2.69a33.319 33.319 0 0 0-3.996-2.29z" id="a"/></defs><g fill="none" fill-rule="evenodd"><mask id="b" fill="#fff"><use xlink:href="#a"/></mask><g mask="url(#b)" fill="#4D24ED"><path d="M0 0h459v134H0z"/></g></g></svg>
